<svg xmlns="http://www.w3.org/2000/svg" width="1680" height="660" viewBox="0 0 1680 660" font-family="Segoe UI,Helvetica,Arial,sans-serif">
<defs>
  <marker id="a" viewBox="0 0 10 10" refX="9" refY="5" markerWidth="7" markerHeight="7" orient="auto-start-reverse"><path d="M0,0 L10,5 L0,10 z" fill="#243A5E"/></marker>
  <marker id="ag" viewBox="0 0 10 10" refX="9" refY="5" markerWidth="7" markerHeight="7" orient="auto-start-reverse"><path d="M0,0 L10,5 L0,10 z" fill="#107C10"/></marker>
  <marker id="ar" viewBox="0 0 10 10" refX="9" refY="5" markerWidth="7" markerHeight="7" orient="auto-start-reverse"><path d="M0,0 L10,5 L0,10 z" fill="#A4262C"/></marker>
  <linearGradient id="tile" x1="0" y1="0" x2="0" y2="1"><stop offset="0" stop-color="#FFFFFF"/><stop offset="1" stop-color="#F7FAFD"/></linearGradient>
</defs>
<rect width="1680" height="660" fill="#FFFFFF"/>
<text x="40" y="46" font-size="22" font-weight="600" fill="#243A5E">Terraform deployment and dependency architecture</text>
<text x="40" y="70" font-size="13" fill="#605E5C">Hero diagram 9 | Related: Labs 2-10 | Cross-module references use data sources, not remote state</text>
<line x1="40" y1="84" x2="1640" y2="84" stroke="#E1E5EA"/>
<g><rect x="30" y="140" width="190" height="70" rx="6" fill="url(#tile)" stroke="#243A5E" stroke-width="1.6"/><circle cx="60" cy="175.0" r="12" fill="none" stroke="#243A5E" stroke-width="2"/><path d="M55,175.0 l4,4 l7,-8" fill="none" stroke="#243A5E" stroke-width="2"/><text x="88" y="170" font-size="13" font-weight="600" fill="#243A5E">Lab 2: Foundation</text><text x="88" y="186" font-size="11" fill="#605E5C">RGs, tags</text></g><g><rect x="235" y="140" width="190" height="70" rx="6" fill="url(#tile)" stroke="#243A5E" stroke-width="1.6"/><circle cx="265" cy="175.0" r="12" fill="none" stroke="#243A5E" stroke-width="2"/><path d="M260,175.0 l4,4 l7,-8" fill="none" stroke="#243A5E" stroke-width="2"/><text x="293" y="170" font-size="13" font-weight="600" fill="#243A5E">Lab 3: Network</text><text x="293" y="186" font-size="11" fill="#605E5C">VNet, subnets, NSGs</text></g><g><rect x="440" y="140" width="190" height="70" rx="6" fill="url(#tile)" stroke="#243A5E" stroke-width="1.6"/><circle cx="470" cy="175.0" r="12" fill="none" stroke="#243A5E" stroke-width="2"/><path d="M465,175.0 l4,4 l7,-8" fill="none" stroke="#243A5E" stroke-width="2"/><text x="498" y="170" font-size="13" font-weight="600" fill="#243A5E">Lab 4: Identity</text><text x="498" y="186" font-size="11" fill="#605E5C">Domain controller</text></g><g><rect x="645" y="140" width="190" height="70" rx="6" fill="url(#tile)" stroke="#243A5E" stroke-width="1.6"/><circle cx="675" cy="175.0" r="12" fill="none" stroke="#243A5E" stroke-width="2"/><path d="M670,175.0 l4,4 l7,-8" fill="none" stroke="#243A5E" stroke-width="2"/><text x="703" y="170" font-size="13" font-weight="600" fill="#243A5E">Lab 5: Storage</text><text x="703" y="186" font-size="11" fill="#605E5C">FSLogix share</text></g><g><rect x="850" y="140" width="190" height="70" rx="6" fill="url(#tile)" stroke="#243A5E" stroke-width="1.6"/><circle cx="880" cy="175.0" r="12" fill="none" stroke="#243A5E" stroke-width="2"/><path d="M875,175.0 l4,4 l7,-8" fill="none" stroke="#243A5E" stroke-width="2"/><text x="908" y="170" font-size="13" font-weight="600" fill="#243A5E">Lab 7: AVD Core</text><text x="908" y="186" font-size="11" fill="#605E5C">Host pool, workspace</text></g><g><rect x="1055" y="140" width="190" height="70" rx="6" fill="url(#tile)" stroke="#243A5E" stroke-width="1.6"/><circle cx="1085" cy="175.0" r="12" fill="none" stroke="#243A5E" stroke-width="2"/><path d="M1080,175.0 l4,4 l7,-8" fill="none" stroke="#243A5E" stroke-width="2"/><text x="1113" y="170" font-size="13" font-weight="600" fill="#243A5E">Lab 8: Hosts</text><text x="1113" y="186" font-size="11" fill="#605E5C">Session host VMs</text></g><g><rect x="1260" y="140" width="190" height="70" rx="6" fill="url(#tile)" stroke="#B77300" stroke-width="1.6"/><circle cx="1290" cy="175.0" r="12" fill="none" stroke="#B77300" stroke-width="2"/><path d="M1285,175.0 l4,4 l7,-8" fill="none" stroke="#B77300" stroke-width="2"/><text x="1318" y="170" font-size="13" font-weight="600" fill="#243A5E">Lab 9: App Delivery</text><text x="1318" y="186" font-size="11" fill="#605E5C">RemoteApp pool</text></g><g><rect x="1465" y="140" width="190" height="70" rx="6" fill="url(#tile)" stroke="#107C10" stroke-width="1.6"/><circle cx="1495" cy="175.0" r="12" fill="none" stroke="#107C10" stroke-width="2"/><path d="M1490,175.0 l4,4 l7,-8" fill="none" stroke="#107C10" stroke-width="2"/><text x="1523" y="170" font-size="13" font-weight="600" fill="#243A5E">Lab 10: Operations</text><text x="1523" y="186" font-size="11" fill="#605E5C">Monitoring, scaling</text></g><rect x="30" y="260" width="1655" height="90" rx="8" fill="#FBFBFC" stroke="#605E5C" stroke-width="1.8" /><text x="44" y="282" font-size="12.5" font-weight="700" fill="#605E5C" letter-spacing="0.5">CROSS-MODULE LOOKUPS VIA DATA SOURCES (NO TERRAFORM_REMOTE_STATE ANYWHERE IN THIS REPO)</text><path d="M125.0,210 L125.0,260" stroke="#107C10" stroke-width="2" fill="none" stroke-dasharray="7 5" marker-end="url(#ag)"/><path d="M330.0,210 L330.0,260" stroke="#107C10" stroke-width="2" fill="none" stroke-dasharray="7 5" marker-end="url(#ag)"/><path d="M535.0,210 L535.0,260" stroke="#107C10" stroke-width="2" fill="none" stroke-dasharray="7 5" marker-end="url(#ag)"/><path d="M740.0,210 L740.0,260" stroke="#107C10" stroke-width="2" fill="none" stroke-dasharray="7 5" marker-end="url(#ag)"/><path d="M945.0,210 L945.0,260" stroke="#107C10" stroke-width="2" fill="none" stroke-dasharray="7 5" marker-end="url(#ag)"/><g><rect x="540" y="285" width="600" height="45" rx="6" fill="url(#tile)" stroke="#605E5C" stroke-width="1.6"/><rect x="560" y="295.5" width="20" height="24" rx="2" fill="none" stroke="#605E5C" stroke-width="2"/><path d="M565,302.5 h10 M565,307.5 h10 M565,312.5 h6" stroke="#605E5C" stroke-width="1.7"/><text x="598" y="315" font-size="13" font-weight="600" fill="#243A5E">data "azurerm_resource_group" / "azurerm_subnet" / "azurerm_virtual_desktop_host_pool"</text><text x="598" y="331" font-size="11" fill="#605E5C">looked up by name, not by remote state</text></g><rect x="30" y="390" width="1655" height="180" rx="8" fill="#FDF6EC" stroke="#B77300" stroke-width="1.8" /><text x="44" y="412" font-size="12.5" font-weight="700" fill="#B77300" letter-spacing="0.5">REAL DEPENDENCY CHAIN FOUND BY THIS BOOK'S OWN CONSISTENCY CHECK</text><g><rect x="50" y="425" width="510" height="60" rx="6" fill="url(#tile)" stroke="#B77300" stroke-width="1.6"/><path d="M80,443.0 l13,22 h-26 z" fill="none" stroke="#B77300" stroke-width="2"/><path d="M80,451.0 v6 M80,460.0 v1.5" stroke="#B77300" stroke-width="2"/><text x="108" y="455" font-size="13" font-weight="600" fill="#243A5E">Lab 9 needs Lab 7's workspace</text><text x="108" y="471" font-size="11" fill="#605E5C">data source lookup by name</text></g><g><rect x="590" y="425" width="510" height="60" rx="6" fill="url(#tile)" stroke="#B77300" stroke-width="1.6"/><path d="M620,443.0 l13,22 h-26 z" fill="none" stroke="#B77300" stroke-width="2"/><path d="M620,451.0 v6 M620,460.0 v1.5" stroke="#B77300" stroke-width="2"/><text x="648" y="455" font-size="13" font-weight="600" fill="#243A5E">Lab 8 needs Labs 3, 4, 5, 7</text><text x="648" y="471" font-size="11" fill="#605E5C">the convergence lab</text></g><g><rect x="1130" y="425" width="520" height="60" rx="6" fill="url(#tile)" stroke="#B77300" stroke-width="1.6"/><path d="M1160,443.0 l13,22 h-26 z" fill="none" stroke="#B77300" stroke-width="2"/><path d="M1160,451.0 v6 M1160,460.0 v1.5" stroke="#B77300" stroke-width="2"/><text x="1188" y="455" font-size="13" font-weight="600" fill="#243A5E">Suffix naming must match exactly</text><text x="1188" y="471" font-size="11" fill="#605E5C">found and fixed: Labs 9, 10 hardcoded region</text></g><g><rect x="50" y="495" width="1605" height="60" rx="6" fill="url(#tile)" stroke="#A4262C" stroke-width="1.6"/><path d="M80,513.0 l13,22 h-26 z" fill="none" stroke="#A4262C" stroke-width="2"/><path d="M80,521.0 v6 M80,530.0 v1.5" stroke="#A4262C" stroke-width="2"/><text x="108" y="525" font-size="13" font-weight="600" fill="#243A5E">Destroy order matters</text><text x="108" y="541" font-size="11" fill="#605E5C">data sources are not tracked as dependencies across separate state files. Destroy later labs first.</text></g><text x="30" y="605" font-size="10.5" fill="#605E5C">Original architecture diagram created for this book. Not a Microsoft diagram. The suffix bug and destroy-order note come from Audit 12.</text></svg>