<svg xmlns="http://www.w3.org/2000/svg" width="1400" height="900" viewBox="0 0 1400 900" font-family="Segoe UI,Helvetica,Arial,sans-serif">
<defs>
  <marker id="a" viewBox="0 0 10 10" refX="9" refY="5" markerWidth="7" markerHeight="7" orient="auto-start-reverse">
    <path d="M0,0 L10,5 L0,10 z" fill="#243A5E"/></marker>
  <marker id="ar" viewBox="0 0 10 10" refX="9" refY="5" markerWidth="7" markerHeight="7" orient="auto-start-reverse">
    <path d="M0,0 L10,5 L0,10 z" fill="#A4262C"/></marker>
  <marker id="ag" viewBox="0 0 10 10" refX="9" refY="5" markerWidth="7" markerHeight="7" orient="auto-start-reverse">
    <path d="M0,0 L10,5 L0,10 z" fill="#107C10"/></marker>
  <linearGradient id="tile" x1="0" y1="0" x2="0" y2="1">
    <stop offset="0" stop-color="#FFFFFF"/><stop offset="1" stop-color="#F7FAFD"/></linearGradient>
</defs>
<rect width="1400" height="900" fill="#FFFFFF"/>
<text x="40" y="46" font-size="24" font-weight="600" fill="#243A5E">Thornbury Rail Partners - production architecture</text>
<text x="40" y="70" font-size="14" fill="#605E5C">Project 09 | GPU session hosts, single model store, offshore access without data duplication</text>
<line x1="40" y1="84" x2="1360" y2="84" stroke="#E1E5EA" stroke-width="1"/>
<rect x="40" y="110" width="300" height="340" rx="8" fill="#FBFBFC" stroke="#605E5C" stroke-width="1.8" stroke-dasharray="7 5"/><text x="54" y="134" font-size="13" font-weight="600" fill="#605E5C" letter-spacing="0.6">USERS</text><g><rect x="65" y="165" width="250" height="70" rx="6" fill="url(#tile)" stroke="#605E5C" stroke-width="1.6"/><circle cx="95" cy="194.0" r="6" fill="none" stroke="#605E5C" stroke-width="2"/><path d="M84,211.0 a11,9 0 0 1 22,0" fill="none" stroke="#605E5C" stroke-width="2"/><text x="123" y="195" font-size="13.5" font-weight="600" fill="#243A5E">UK engineers</text><text x="123" y="211" font-size="11.5" fill="#605E5C">205 users, 3 monitors</text></g><g><rect x="65" y="250" width="250" height="76" rx="6" fill="url(#tile)" stroke="#B77300" stroke-width="1.6"/><circle cx="95" cy="282.0" r="6" fill="none" stroke="#B77300" stroke-width="2"/><path d="M84,299.0 a11,9 0 0 1 22,0" fill="none" stroke="#B77300" stroke-width="2"/><text x="123" y="280" font-size="13.5" font-weight="600" fill="#243A5E">Bengaluru engineers</text><text x="123" y="296" font-size="11.5" fill="#605E5C">35 users</text><text x="123" y="311" font-size="11.5" fill="#605E5C">130 to 150 ms latency</text></g><g><rect x="65" y="345" width="250" height="70" rx="6" fill="url(#tile)" stroke="#243A5E" stroke-width="1.6"/><rect x="81" y="370.0" width="28" height="17" rx="2" fill="none" stroke="#243A5E" stroke-width="2"/><path d="M87,391.0 h16" stroke="#243A5E" stroke-width="2"/><text x="123" y="375" font-size="13.5" font-weight="600" fill="#243A5E">Windows App</text><text x="123" y="391" font-size="11.5" fill="#605E5C">RDP Shortpath over UDP</text></g><rect x="390" y="110" width="300" height="340" rx="8" fill="#EFF6FC" stroke="#0078D4" stroke-width="1.8" /><text x="404" y="134" font-size="13" font-weight="600" fill="#0078D4" letter-spacing="0.6">MICROSOFT MANAGED</text><g><rect x="415" y="165" width="250" height="82" rx="6" fill="url(#tile)" stroke="#0078D4" stroke-width="1.6"/><path d="M445,195.0 l11,5 v7 a11,11 0 0 1 -11,10 a11,11 0 0 1 -11,-10 v-7 z" fill="none" stroke="#0078D4" stroke-width="2"/><text x="473" y="195" font-size="13.5" font-weight="600" fill="#243A5E">Microsoft Entra ID</text><text x="473" y="211" font-size="11.5" fill="#605E5C">Authentication, MFA</text><text x="473" y="226" font-size="11.5" fill="#605E5C">Conditional Access</text></g><g><rect x="415" y="262" width="250" height="76" rx="6" fill="url(#tile)" stroke="#0078D4" stroke-width="1.6"/><circle cx="445" cy="300.0" r="12" fill="none" stroke="#0078D4" stroke-width="2"/><path d="M440,300.0 l4,4 l7,-8" fill="none" stroke="#0078D4" stroke-width="2"/><text x="473" y="292" font-size="13.5" font-weight="600" fill="#243A5E">Azure Virtual Desktop</text><text x="473" y="308" font-size="11.5" fill="#605E5C">Broker, gateway, feed</text></g><g><rect x="415" y="353" width="250" height="76" rx="6" fill="url(#tile)" stroke="#0078D4" stroke-width="1.6"/><rect x="435" y="379.0" width="20" height="24" rx="2" fill="none" stroke="#0078D4" stroke-width="2"/><path d="M440,386.0 h10 M440,391.0 h10 M440,396.0 h6" stroke="#0078D4" stroke-width="1.7"/><text x="473" y="383" font-size="13.5" font-weight="600" fill="#243A5E">Microsoft Intune</text><text x="473" y="399" font-size="11.5" fill="#605E5C">Graphics policy, baseline</text></g><rect x="740" y="110" width="620" height="480" rx="8" fill="#F5F9FD" stroke="#0078D4" stroke-width="1.8" /><text x="754" y="134" font-size="13" font-weight="600" fill="#0078D4" letter-spacing="0.6">CUSTOMER AZURE - UK SOUTH</text><text x="754" y="152" font-size="11.5" fill="#605E5C">Two availability zones. GPU SKU unavailable in the third</text><g><rect x="770" y="170" width="270" height="82" rx="6" fill="url(#tile)" stroke="#243A5E" stroke-width="1.6"/><rect x="786" y="202.0" width="28" height="18" rx="2" fill="none" stroke="#243A5E" stroke-width="2"/><rect x="792" y="207.0" width="7" height="8" fill="#243A5E"/><rect x="801" y="207.0" width="7" height="8" fill="#243A5E"/><text x="828" y="200" font-size="13.5" font-weight="600" fill="#243A5E">Alignment pool</text><text x="828" y="216" font-size="11.5" fill="#605E5C">95 hosts, half A10</text><text x="828" y="231" font-size="11.5" fill="#605E5C">Personal, 12 GiB</text></g><g><rect x="1065" y="170" width="270" height="82" rx="6" fill="url(#tile)" stroke="#243A5E" stroke-width="1.6"/><rect x="1081" y="202.0" width="28" height="18" rx="2" fill="none" stroke="#243A5E" stroke-width="2"/><rect x="1087" y="207.0" width="7" height="8" fill="#243A5E"/><rect x="1096" y="207.0" width="7" height="8" fill="#243A5E"/><text x="1123" y="200" font-size="13.5" font-weight="600" fill="#243A5E">Structures pool</text><text x="1123" y="216" font-size="11.5" fill="#605E5C">70 hosts, half A10</text><text x="1123" y="231" font-size="11.5" fill="#605E5C">Personal</text></g><g><rect x="770" y="272" width="270" height="82" rx="6" fill="url(#tile)" stroke="#243A5E" stroke-width="1.6"/><rect x="786" y="304.0" width="28" height="18" rx="2" fill="none" stroke="#243A5E" stroke-width="2"/><rect x="792" y="309.0" width="7" height="8" fill="#243A5E"/><rect x="801" y="309.0" width="7" height="8" fill="#243A5E"/><text x="828" y="302" font-size="13.5" font-weight="600" fill="#243A5E">Signalling pool</text><text x="828" y="318" font-size="11.5" fill="#605E5C">40 hosts, one sixth A10</text><text x="828" y="333" font-size="11.5" fill="#605E5C">4 GiB frame buffer</text></g><g><rect x="1065" y="272" width="270" height="82" rx="6" fill="url(#tile)" stroke="#B77300" stroke-width="1.6"/><rect x="1081" y="304.0" width="28" height="18" rx="2" fill="none" stroke="#B77300" stroke-width="2"/><rect x="1087" y="309.0" width="7" height="8" fill="#B77300"/><rect x="1096" y="309.0" width="7" height="8" fill="#B77300"/><text x="1123" y="302" font-size="13.5" font-weight="600" fill="#243A5E">Bengaluru pool</text><text x="1123" y="318" font-size="11.5" fill="#605E5C">35 hosts, half A10</text><text x="1123" y="333" font-size="11.5" fill="#605E5C">UK hosted by design</text></g><g><rect x="770" y="374" width="270" height="82" rx="6" fill="url(#tile)" stroke="#107C10" stroke-width="1.6"/><rect x="786" y="406.0" width="28" height="18" rx="2" fill="none" stroke="#107C10" stroke-width="2"/><rect x="792" y="411.0" width="7" height="8" fill="#107C10"/><rect x="801" y="411.0" width="7" height="8" fill="#107C10"/><text x="828" y="404" font-size="13.5" font-weight="600" fill="#243A5E">Large model hosts</text><text x="828" y="420" font-size="11.5" fill="#605E5C">4 hosts, full A10</text><text x="828" y="435" font-size="11.5" fill="#605E5C">On demand, shared</text></g><g><rect x="1065" y="374" width="270" height="82" rx="6" fill="url(#tile)" stroke="#243A5E" stroke-width="1.6"/><ellipse cx="1095" cy="408.0" rx="13" ry="4.5" fill="none" stroke="#243A5E" stroke-width="2"/><path d="M1082,408.0 v13 a13,4.5 0 0 0 26,0 v-13" fill="none" stroke="#243A5E" stroke-width="2"/><text x="1123" y="404" font-size="13.5" font-weight="600" fill="#243A5E">Azure NetApp Files</text><text x="1123" y="420" font-size="11.5" fill="#605E5C">Model data</text><text x="1123" y="435" font-size="11.5" fill="#605E5C">Single source of truth</text></g><g><rect x="770" y="476" width="270" height="76" rx="6" fill="url(#tile)" stroke="#243A5E" stroke-width="1.6"/><ellipse cx="800" cy="507.0" rx="13" ry="4.5" fill="none" stroke="#243A5E" stroke-width="2"/><path d="M787,507.0 v13 a13,4.5 0 0 0 26,0 v-13" fill="none" stroke="#243A5E" stroke-width="2"/><text x="828" y="506" font-size="13.5" font-weight="600" fill="#243A5E">Azure Files</text><text x="828" y="522" font-size="11.5" fill="#605E5C">FSLogix profiles</text></g><g><rect x="1065" y="476" width="270" height="76" rx="6" fill="url(#tile)" stroke="#243A5E" stroke-width="1.6"/><path d="M1082,522.0 l7,-11 l6,7 l5,-9 l8,13" fill="none" stroke="#243A5E" stroke-width="2"/><text x="1123" y="506" font-size="13.5" font-weight="600" fill="#243A5E">Log Analytics</text><text x="1123" y="522" font-size="11.5" fill="#605E5C">AVD Insights, GPU metrics</text></g><rect x="40" y="495" width="650" height="250" rx="8" fill="#F4FAF4" stroke="#107C10" stroke-width="1.8" /><text x="54" y="519" font-size="13" font-weight="600" fill="#107C10" letter-spacing="0.6">OPERATIONAL CONTROLS</text><g><rect x="65" y="545" width="290" height="82" rx="6" fill="url(#tile)" stroke="#107C10" stroke-width="1.6"/><rect x="85" y="574.0" width="20" height="24" rx="2" fill="none" stroke="#107C10" stroke-width="2"/><path d="M90,581.0 h10 M90,586.0 h10 M90,591.0 h6" stroke="#107C10" stroke-width="1.7"/><text x="123" y="575" font-size="13.5" font-weight="600" fill="#243A5E">Pinned GRID driver</text><text x="123" y="591" font-size="11.5" fill="#605E5C">Version from the CAD vendor</text><text x="123" y="606" font-size="11.5" fill="#605E5C">certified list, set in the image</text></g><g><rect x="375" y="545" width="290" height="82" rx="6" fill="url(#tile)" stroke="#107C10" stroke-width="1.6"/><rect x="395" y="574.0" width="20" height="24" rx="2" fill="none" stroke="#107C10" stroke-width="2"/><path d="M400,581.0 h10 M400,586.0 h10 M400,591.0 h6" stroke="#107C10" stroke-width="1.7"/><text x="433" y="575" font-size="13.5" font-weight="600" fill="#243A5E">Start VM on Connect</text><text x="433" y="591" font-size="11.5" fill="#605E5C">Roughly 200 hours</text><text x="433" y="606" font-size="11.5" fill="#605E5C">per host per month</text></g><g><rect x="65" y="647" width="290" height="70" rx="6" fill="url(#tile)" stroke="#107C10" stroke-width="1.6"/><path d="M82,690.0 l7,-11 l6,7 l5,-9 l8,13" fill="none" stroke="#107C10" stroke-width="2"/><text x="123" y="677" font-size="13.5" font-weight="600" fill="#243A5E">Monthly driver report</text><text x="123" y="693" font-size="11.5" fill="#605E5C">All hosts against the list</text></g><g><rect x="375" y="647" width="290" height="70" rx="6" fill="url(#tile)" stroke="#107C10" stroke-width="1.6"/><path d="M392,690.0 l7,-11 l6,7 l5,-9 l8,13" fill="none" stroke="#107C10" stroke-width="2"/><text x="433" y="677" font-size="13.5" font-weight="600" fill="#243A5E">GPU utilisation check</text><text x="433" y="693" font-size="11.5" fill="#605E5C">Under load, post build</text></g><path d="M315,200 L415,200" stroke="#243A5E" stroke-width="2" fill="none"  marker-end="url(#a)"/><rect x="337.3" y="180" width="55.4" height="17" rx="3" fill="#FFFFFF" opacity="0.95"/><text x="365" y="192" font-size="11.5" fill="#243A5E" text-anchor="middle">sign in</text><path d="M315,380 L415,300" stroke="#243A5E" stroke-width="2.6" fill="none"  marker-end="url(#a)"/><rect x="344.7" y="318" width="30.6" height="17" rx="3" fill="#FFFFFF" opacity="0.95"/><text x="360" y="330" font-size="11.5" fill="#243A5E" text-anchor="middle">RDP</text><path d="M665,300 L770,210" stroke="#243A5E" stroke-width="2.6" fill="none"  marker-end="url(#a)"/><rect x="695.4" y="234" width="49.2" height="17" rx="3" fill="#FFFFFF" opacity="0.95"/><text x="720" y="246" font-size="11.5" fill="#243A5E" text-anchor="middle">broker</text><path d="M665,391 L770,300" stroke="#107C10" stroke-width="2" fill="none" stroke-dasharray="7 5" marker-end="url(#ag)"/><rect x="705.4" y="324" width="49.2" height="17" rx="3" fill="#FFFFFF" opacity="0.95"/><text x="730" y="336" font-size="11.5" fill="#107C10" text-anchor="middle">policy</text><path d="M1200,356 L1200,374" stroke="#243A5E" stroke-width="2" fill="none"  marker-end="url(#a)"/><path d="M1040,415 L1065,415" stroke="#243A5E" stroke-width="2" fill="none"  marker-end="url(#a)"/><rect x="1036.7" y="395" width="30.6" height="17" rx="3" fill="#FFFFFF" opacity="0.95"/><text x="1052" y="407" font-size="11.5" fill="#243A5E" text-anchor="middle">SMB</text><path d="M905,356 L905,476" stroke="#243A5E" stroke-width="2" fill="none"  marker-end="url(#a)"/><rect x="919.2" y="408" width="61.6" height="17" rx="3" fill="#FFFFFF" opacity="0.95"/><text x="950" y="420" font-size="11.5" fill="#243A5E" text-anchor="middle">profiles</text><rect x="740" y="620" width="330" height="88" rx="6" fill="#FFFFFF" stroke="#D8DDE3"/><text x="752" y="640" font-size="12" font-weight="600" fill="#243A5E">Legend</text><path d="M752,656 L792,656" stroke="#243A5E" stroke-width="2.4" /><text x="802" y="660" font-size="11.5" fill="#605E5C">Session and data path</text><path d="M752,676 L792,676" stroke="#107C10" stroke-width="2.4" stroke-dasharray="7 5"/><text x="802" y="680" font-size="11.5" fill="#605E5C">Policy and operational control</text><path d="M752,696 L792,696" stroke="#B77300" stroke-width="2.4" /><text x="802" y="700" font-size="11.5" fill="#605E5C">Deliberate exception, reviewed</text><text x="40" y="878" font-size="11" fill="#605E5C">Original architecture diagram created for this book. Not a Microsoft diagram. Product names are Microsoft trademarks.</text></svg>